<?xml version="1.0" encoding="utf-8"?>
<!-- Generator: Adobe Illustrator 23.0.2, SVG Export Plug-In . SVG Version: 6.00 Build 0)  -->
<svg version="1.1" id="Layer_1" xmlns="http://www.w3.org/2000/svg" xmlns:xlink="http://www.w3.org/1999/xlink" x="0px" y="0px"
	 viewBox="0 0 50 50" style="enable-background:new 0 0 50 50;" xml:space="preserve">
<style type="text/css">
	.st0{fill:#FFFFFF;}
</style>
<g>
	<path class="st0" d="M42.2,28.1h4.7v-4.7c0-3.5-2.8-6.3-6.3-6.3h-1.6v-2.3c0-3-2.5-5.5-5.5-5.5c-0.8,0-1.6,0.2-2.3,0.5V8.5
		c0-2.9-2.4-5.3-5.3-5.3c-2.1,0-4.1,1.3-4.9,3.2l-3.3,7.7h-3.7c-4.3,0-7.8,3.5-7.8,7.8v6.2h6.3c4.3,0,7.8-3.5,7.8-7.8V16l3.6-8.4
		c0.5-1.1,1.8-1.6,2.9-1.2c0.8,0.4,1.3,1.2,1.3,2v25.9h-5.3l-5.6,5.1l-5.7-5.1H3.1v3.1h7.2l6.9,6.3l6.8-6.3h22.8v-3.1H31.3V14.8
		c0-1.3,1-2.3,2.3-2.3c1.3,0,2.3,1,2.3,2.3v7C35.9,25.3,38.7,28.1,42.2,28.1z M39.1,20.3h1.6c1.7,0,3.1,1.4,3.1,3.1V25h-1.6
		c-1.7,0-3.1-1.4-3.1-3.1V20.3z M17.2,20.3c0,2.6-2.1,4.7-4.7,4.7H9.4v-3.1c0-2.6,2.1-4.7,4.7-4.7h3.1V20.3z"/>
</g>
</svg>
