<?xml version="1.0" encoding="utf-8"?>
<!-- Generator: Adobe Illustrator 23.0.2, SVG Export Plug-In . SVG Version: 6.00 Build 0)  -->
<svg version="1.1" id="Layer_1" xmlns="http://www.w3.org/2000/svg" xmlns:xlink="http://www.w3.org/1999/xlink" x="0px" y="0px"
	 viewBox="0 0 60 60" style="enable-background:new 0 0 60 60;" xml:space="preserve">
<style type="text/css">
	.st0{fill:#FFFFFF;}
</style>
<g>
	<path class="st0" d="M56.7,58.4c-0.1-0.1-8.8-8.2-15.9-22.2c1.4,0.6,0.1-1.1,0.1-1.1c-0.9-1.2-2-5.4-2.6-6.4c0,0,0,0,0,0
		c1.3-1.3,3.3-1.8,2.7-3.7c-1.2-3.3-6.9,5.2-4.3,0.3c2.7-4.9-0.1-5.5-0.9-4.4c-0.5,0.7-1.5,5.5-2.3,6.9c-0.2,0-0.4,0.1-0.7,0.1
		c-0.1-0.3-0.2-0.8-0.3-1.7c-0.5-6.3,6.9-25.7,2.9-23c-4,2.7-3.5,20.3-5.8,23.2c-2.3,3,2.4-19.4,0.6-21.6c-1.3-1.7-4.7-1.3-3.2,13
		c1.5,14.4-1,6.7-2.3,3.1c-1.3-3.6-2.6-2.3-1.3,4.3c1.1,5.3-1.4-2.2-4.4-7.7c-3-5.5-9.6-2.4-4,1.6c5.2,3.7,6,7,7,9.7
		c-1,0.9-1.9,3-2.9,6.1c-0.3,0.9,0,0.8,0.4,0.4C12.9,50,3.5,58.3,3.4,58.4L1.5,60h57L56.7,58.4 M6.4,58.1c3.4-3.4,11.1-12,16.5-25.1
		l0-0.1l0-0.1c0.2,0.2,0.4,0.5,0.6,0.8c-0.9,0.8-1.5,1.9-1.7,3.2c-0.2,1.7-0.1,3.1-1.3,4.4C18.9,43,16.6,45,17,48
		c0.7-1.6,1.6-2.8,2.8-3.8c0.7-0.6,1.5-1.2,2.2-1.9c1.1-1.2,1.4-2.8,1.2-4.5c-0.2-1.5,0-2.6,0.5-3.9c0.4,0.4,0.9,0.5,1.5-0.5
		c1.2-1.9,2.3-1.5,4,0.3c-2,1.9-1.4,5.3,0.2,7.2c1.2,1.4,3.6,3.4,2.8,5.6c2.1-1.4,0.2-4.8-0.9-6.2c-1.6-1.9-2.4-3.9-1.8-6.4
		c0.4,0.4,0.8,0.9,1.2,1.4c0.5,0.6,0.9,1,1.4,1.3c0.3,1.5,1.4,3.1,2.3,4c0,0,0,0,0,0c2.3,2.4,1,6.1,0.1,8.9c2.3-2,4.1-6.7,1.8-9.5
		c-0.4-0.5-1-1-1.5-1.4c-0.4-0.4-0.7-0.8-1.1-1.2c1,0.1,1.8-0.5,2.4-1.3c0.1-0.2,0.3-0.3,0.4-0.5c1.3,2.7,2.2,5.5,2.9,8.3
		c0.3,1.2,0.5,2.5,0.9,3.7c0.5,1.4,1.7,3.5,3.3,3.2c-1.4-0.7-1.8-2.8-1.9-4.4c-0.1-1.3-0.4-2.6-0.7-3.8C40.2,39.9,38.9,37,37,35
		c0.3-0.2,0.6-0.3,1-0.2c5.6,11.9,12.6,20.1,15.7,23.4L6.4,58.1L6.4,58.1z"/>
	<path class="st0" d="M12.5,53.7C11.2,54.6,9.2,56,9,57.9c1.4-1.1,3.1-1.7,4.5-2.7c1.4-0.9,3-2.9,2.8-4.8
		C15.2,51.6,13.9,52.9,12.5,53.7"/>
	<path class="st0" d="M26.6,38.3c-0.2-1.2-0.1-2.4,0.1-3.7c-1.8,2-1.7,4.9-0.9,7.3c0.8,2.4,0.3,5,0.1,7.5c1.6-1.9,2.5-5.1,1.7-7.7
		C27.3,40.6,26.8,39.5,26.6,38.3"/>
	<path class="st0" d="M23.2,44.2c-0.6,2.6-2.1,4.2-3.7,6.1c-1.9,2.2-1.3,5.5,0.9,7.1c-0.4-1.1-0.8-2.3-0.7-3.4c0-1.3,0.8-2.2,1.6-3
		C22.9,49.4,24.2,46.5,23.2,44.2"/>
	<path class="st0" d="M30.2,46.4c-2.2,1.3-2,4.5-0.7,6.5c0.8,1.3,2.2,2.8,2.1,4.5c1.2-1.2,0.3-3.7-0.4-4.9
		C30.1,50.5,29.6,48.7,30.2,46.4"/>
	<path class="st0" d="M24.7,49.4c-2.1,0.8-1.2,3.9-0.2,5.2c0.5,0.6,2.3,2.2,2,3.3c1.4-0.5,0.1-3.3-0.4-4
		C25.3,52.6,24.2,51.1,24.7,49.4"/>
	<path class="st0" d="M32.7,50.4c0.7,1.2,1.5,2.3,2.2,3.5c0.8,1.2,1.2,2.6,1.6,4.1C38.8,55,35.6,50.6,32.7,50.4"/>
	<path class="st0" d="M41.8,53.9c-1.7-1.3-2.8-3.2-3.6-5.4c-1.2,2.6,0.6,5.7,2.7,6.8c0.3,0.4,3.1,1.1,2.6,2c1.1-0.2-0.2-2-0.5-2.3
		C42.7,54.6,42.2,54.3,41.8,53.9"/>
	<path class="st0" d="M46.4,54.7c0.6,2.1,3.1,3.2,4.9,2.7c-1.4-0.9-3.1-1.9-3.4-3.8l0,0c-0.2-2-1.9-3.7-3.7-4.2
		c0.6,1.1,1.3,2.1,1.7,3.3C46.2,53.3,46.2,54,46.4,54.7"/>
	<path class="st0" d="M37.8,18.9c1.6-1.7,2.4-7.1,1.2-5.3C37.8,15.3,36.8,20,37.8,18.9"/>
	<path class="st0" d="M42.1,23.7c1.6-0.5,4.7-6.6,3.2-5.1C43.8,20.1,40.1,24.3,42.1,23.7"/>
	<path class="st0" d="M44.4,10.3c-1.7,0.9-4.6,8.1-4.8,10.8C39.4,24,46.1,9.4,44.4,10.3"/>
	<path class="st0" d="M22.5,16.6c3.1,2.1-3.2-9.3-3.6-7C18.3,11.9,21.1,15.7,22.5,16.6"/>
</g>
</svg>
